/* XPM */
static char * C:\Users\htcan\OneDrive\Commercium\newwallet\commercium16_xpm[] = {
"16 16 75 1",
" 	c None",
".	c #21C1ED",
"+	c #24C4EB",
"@	c #26C7EA",
"#	c #28C9E9",
"$	c #2ACCE8",
"%	c #2CCFE6",
"&	c #2ED1E5",
"*	c #30D3E5",
"=	c #1DBCEF",
"-	c #20BFED",
";	c #22C2EC",
">	c #28CAE9",
",	c #2BCDE7",
"'	c #2DCFE6",
")	c #2FD2E5",
"!	c #30D4E4",
"~	c #1AB8F0",
"{	c #1CBAF0",
"]	c #1EBCEF",
"^	c #25C5EB",
"/	c #27C8E9",
"(	c #29CBE8",
"_	c #31D4E4",
":	c #1AB8F1",
"<	c #2CCEE7",
"[	c #2DD0E6",
"}	c #1FBFEE",
"|	c #22C1EC",
"1	c #23C3EB",
"2	c #1EBDEE",
"3	c #20C0ED",
"4	c #18B5F2",
"5	c #23C2EC",
"6	c #14B1F4",
"7	c #16B2F3",
"8	c #17B4F2",
"9	c #21C0ED",
"0	c #23C3EC",
"a	c #12AEF5",
"b	c #14B0F4",
"c	c #15B1F3",
"d	c #1FBEEE",
"e	c #25C6EA",
"f	c #13AFF4",
"g	c #15B1F4",
"h	c #1CBBEF",
"i	c #11ACF6",
"j	c #16B3F3",
"k	c #18B6F2",
"l	c #1BB8F0",
"m	c #13AFF5",
"n	c #07A0FB",
"o	c #09A2FA",
"p	c #18B6F1",
"q	c #1BB9F0",
"r	c #1DBBEF",
"s	c #049CFD",
"t	c #059EFC",
"u	c #09A3FA",
"v	c #0BA5F9",
"w	c #0DA8F8",
"x	c #0FAAF6",
"y	c #12ADF5",
"z	c #17B3F3",
"A	c #19B6F1",
"B	c #069EFC",
"C	c #0AA3FA",
"D	c #0CA6F8",
"E	c #0EA9F7",
"F	c #10ABF6",
"G	c #059DFC",
"H	c #069FFC",
"I	c #08A1FB",
"J	c #0AA4F9",
"   .+@#$%&*     ",
"  =-;+@>,')!    ",
" ~{]-;^/(,')_   ",
"  :{      <[)!  ",
"      }|1  <[)! ",
"    :{23;+ (,[) ",
"    4:  .5^/(,[ ",
"   678   90^/(, ",
"   abc   d90e/( ",
"    afg ~hd90e/ ",
"    iabjkl }91^ ",
"      mc8  =d.0 ",
"  no      pqrd  ",
" stnuvwxybzAq   ",
"  sBnCDEFa68    ",
"   GHIJDEif     "};
