/* XPM */
static char * C:\Users\htcan\OneDrive\Commercium\newwallet\commercium64_xpm[] = {
"64 64 230 2",
"  	c None",
". 	c #28D7FF",
"+ 	c #2ADAFF",
"@ 	c #2BDBFF",
"# 	c #2BDCFF",
"$ 	c #2CDCFF",
"% 	c #2DDEFF",
"& 	c #2DDFFF",
"* 	c #2EE0FF",
"= 	c #2FE2FF",
"- 	c #31E3FF",
"; 	c #31E6FF",
"> 	c #32E7FF",
", 	c #32E9FF",
"' 	c #33E8FF",
") 	c #25D3FF",
"! 	c #26D5FF",
"~ 	c #27D5FF",
"{ 	c #28D6FF",
"] 	c #28D8FF",
"^ 	c #29D8FF",
"/ 	c #29D9FF",
"( 	c #2EDFFF",
"_ 	c #33E7FF",
": 	c #34E9FF",
"< 	c #35EBFF",
"[ 	c #24D1FF",
"} 	c #25D2FF",
"| 	c #26D4FF",
"1 	c #27D6FF",
"2 	c #33E9FF",
"3 	c #35EAFF",
"4 	c #35ECFF",
"5 	c #23CEFF",
"6 	c #24CFFF",
"7 	c #26D3FF",
"8 	c #2CDDFF",
"9 	c #32E6FF",
"0 	c #34EAFF",
"a 	c #35EDFF",
"b 	c #37ECFF",
"c 	c #20CAFF",
"d 	c #21CBFF",
"e 	c #21CCFF",
"f 	c #22CEFF",
"g 	c #22CFFF",
"h 	c #24D0FF",
"i 	c #2FE3FF",
"j 	c #36EDFF",
"k 	c #1FC8FF",
"l 	c #20CBFF",
"m 	c #25D1FF",
"n 	c #2BDAFF",
"o 	c #36EEFF",
"p 	c #36EFFF",
"q 	c #1EC7FF",
"r 	c #1FC9FF",
"s 	c #26D2FF",
"t 	c #34EBFF",
"u 	c #1DC4FF",
"v 	c #1EC6FF",
"w 	c #20C9FF",
"x 	c #2EE1FF",
"y 	c #37EDFF",
"z 	c #38EEFF",
"A 	c #3AF0FF",
"B 	c #1CC5FF",
"C 	c #1DC5FF",
"D 	c #1EC8FF",
"E 	c #29D7FF",
"F 	c #36ECFF",
"G 	c #37EEFF",
"H 	c #37EFFF",
"I 	c #38EFFF",
"J 	c #1BC3FF",
"K 	c #24D2FF",
"L 	c #2BDFFF",
"M 	c #38EDFF",
"N 	c #1BC1FF",
"O 	c #1CC4FF",
"P 	c #21CDFF",
"Q 	c #2FE1FF",
"R 	c #38F1FF",
"S 	c #1AC1FF",
"T 	c #1CC2FF",
"U 	c #30E3FF",
"V 	c #1ABFFF",
"W 	c #1AC2FF",
"X 	c #1CC3FF",
"Y 	c #2DE3FF",
"Z 	c #30E2FF",
"` 	c #1AC0FF",
" .	c #1EC5FF",
"..	c #1DC7FF",
"+.	c #31E4FF",
"@.	c #1BC4FF",
"#.	c #1BC2FF",
"$.	c #20C3FF",
"%.	c #30E4FF",
"&.	c #22CDFF",
"*.	c #26D1FF",
"=.	c #26D6FF",
"-.	c #2EE3FF",
";.	c #35F0FF",
">.	c #1FC7FF",
",.	c #2AD8FF",
"'.	c #2EE2FF",
").	c #27D7FF",
"!.	c #2BDEFF",
"~.	c #29D6FF",
"{.	c #19BFFF",
"].	c #19C0FF",
"^.	c #1FCAFF",
"/.	c #22CBFF",
"(.	c #23CDFF",
"_.	c #2AD9FF",
":.	c #18BDFF",
"<.	c #23CFFF",
"[.	c #17BDFF",
"}.	c #18BEFF",
"|.	c #17BBFF",
"1.	c #17BCFF",
"2.	c #23D0FF",
"3.	c #17B9FF",
"4.	c #16B9FF",
"5.	c #16BBFF",
"6.	c #1BBEFF",
"7.	c #15B7FF",
"8.	c #15B9FF",
"9.	c #16BAFF",
"0.	c #15B8FF",
"a.	c #18BCFF",
"b.	c #15B6FF",
"c.	c #14B7FF",
"d.	c #13B6FF",
"e.	c #14B6FF",
"f.	c #14B8FF",
"g.	c #21C9FF",
"h.	c #14B4FF",
"i.	c #13B5FF",
"j.	c #12B6FF",
"k.	c #13B4FF",
"l.	c #12B4FF",
"m.	c #1DC6FF",
"n.	c #11B4FF",
"o.	c #12B3FF",
"p.	c #11B3FF",
"q.	c #1CC1FF",
"r.	c #2CDBFF",
"s.	c #2BDDFF",
"t.	c #12B2FF",
"u.	c #15BCFF",
"v.	c #18C0FF",
"w.	c #2ADBFF",
"x.	c #11B2FF",
"y.	c #18BBFF",
"z.	c #19BCFF",
"A.	c #1ABEFF",
"B.	c #19C1FF",
"C.	c #1EC9FF",
"D.	c #12B1FF",
"E.	c #14B5FF",
"F.	c #20CCFF",
"G.	c #10B1FF",
"H.	c #18BFFF",
"I.	c #1FCBFF",
"J.	c #20C8FF",
"K.	c #13B3FF",
"L.	c #15BAFF",
"M.	c #08A3FF",
"N.	c #09A5FF",
"O.	c #09A6FF",
"P.	c #0AA7FF",
"Q.	c #07A2FF",
"R.	c #08A2FF",
"S.	c #08A4FF",
"T.	c #08A5FF",
"U.	c #0AA6FF",
"V.	c #08A9FF",
"W.	c #19C2FF",
"X.	c #22CCFF",
"Y.	c #069FFF",
"Z.	c #06A0FF",
"`.	c #07A3FF",
" +	c #1ABCFF",
".+	c #059FFF",
"++	c #0AA9FF",
"@+	c #0BA8FF",
"#+	c #18B9FF",
"$+	c #059DFF",
"%+	c #06A1FF",
"&+	c #0AA8FF",
"*+	c #0BA7FF",
"=+	c #17BAFF",
"-+	c #1FC5FF",
";+	c #049EFF",
">+	c #06A2FF",
",+	c #0BA9FF",
"'+	c #0CAAFF",
")+	c #0DACFF",
"!+	c #0CACFF",
"~+	c #10B4FF",
"{+	c #12B5FF",
"]+	c #1EC3FF",
"^+	c #049DFF",
"/+	c #0CABFF",
"(+	c #0DADFF",
"_+	c #0EAEFF",
":+	c #0EAFFF",
"<+	c #0FAFFF",
"[+	c #0FB0FF",
"}+	c #029BFF",
"|+	c #039CFF",
"1+	c #05A0FF",
"2+	c #0EADFF",
"3+	c #0FAEFF",
"4+	c #11B1FF",
"5+	c #0499FF",
"6+	c #039BFF",
"7+	c #039DFF",
"8+	c #19BEFF",
"9+	c #049CFF",
"0+	c #059CFF",
"a+	c #049FFF",
"b+	c #059EFF",
"c+	c #04A0FF",
"d+	c #10B0FF",
"e+	c #10B2FF",
"f+	c #0DABFF",
"g+	c #0EABFF",
"                                              . + + @ # $ % & * * = = - ; > > , '                                               ",
"                                        ) ! ~ { ] ^ / @ # $ % & ( * = = - ; > _ ' : : <                                         ",
"                                    [ } } | ~ 1 { ] ^ / @ $ $ % % ( * = = - ; > > ' 2 < 3 4                                     ",
"                                5 5 6 [ } 7 | ~ ~ { ] / / @ $ $ 8 & ( * = = - ; 9 > 2 2 0 3 a b                                 ",
"                            c d e f g h [ } 7 ! ~ 1 { ] / / @ $ $ 8 & ( * = i - ; 9 > 2 0 0 < j j j                             ",
"                          k c l e e f g h m } 7 7 ~ 1 { ] / n @ # $ 8 & * * = i - ; > > 2 0 0 < j o p                           ",
"                        q k r l l e e f g h m } s 7 ~ 1 { ] / n @ # $ 8 & * * = = - ; > > 2 0 0 t j j o                         ",
"                      u v v k r w l e e f g h m } s | ~ 1 { ] / / @ # $ 8 & * x = = - ; > _ 2 0 0 t j y z A                     ",
"                      B C v D r r l l e f g 6 [ m } 7 ! ~ { E . / @ @ # 8 % ( * x = i - 9 > ' 2 0 0 F j G H I                   ",
"                      J C C v k k r l l e f g 6 h K m |                   L % & * x = i - 9 > ' 2 0 0 F j G H M                 ",
"                      N O C C v v k r l l e P f P                               x Q = = - - 9 > _ 2 0 0 F j G H R               ",
"                      S T O C v v D k r c d                                           Q U - - 9 > _ 2 0 0 F j G G               ",
"                      V W X O C C v D k r                                               Y Z - ; ; > _ 2 0 t F j y I             ",
"                        ` N T O C  ...                                                      i +.- ; > ' 2 0 t F j G I           ",
"                            @.X #.$.                                                          i %.- ; > ' 2 0 t < j G           ",
"                                                                                                i %.- ; > ' 2 0 0 < j G         ",
"                                                                                                  - - ; > _ 2 0 0 t j j p       ",
"                                                          &.P 6 h [ *.7 ~                           U - ; > _ 2 2 0 t j y       ",
"                                                    c c d d f 6 6 [ } 7 7 =.1                       -.= - ; > _ ' 2 0 t j ;.    ",
"                                                ..>.r w l e e f g 6 [ } s | ~ 1 ,.                  '.= = - ; > > ' 2 0 < F     ",
"                                              O  .v k r c l e f f g 6 [ } 7 | ~ ~ .                 * * = = - ; 9 > 2 2 0 <     ",
"                                            X u C v v k r l l e e f g h [ } 7 ! ~ 1 ).            !.& ( * = i - ; 9 > 2 0 3 <   ",
"                                          S N X O C v v k r l l e e f g h m } 7 7 ~ 1 ~.        # # 8 & * * = i - ; > > 2 0 t   ",
"                                        {.].S T X O C v v >.r ^.c /.(.5 g h m } s 7 ~ 1 { / ^ _.@ # $ 8 & * * = = - ; > > 2 :   ",
"                                        :.{.S W T X C C q               5 <.h } } 7 ! ~ 1 ] ^ / n @ $ 8 % ( * = = i - ; > ' 2 t ",
"                                      [.}.{.{.S S T O @.                  (.6 [ m } 7 ! ~ { ] ^ / n @ $ 8 % ( * x = i - 9 > _ ' ",
"                                      |.1.}.{.{.S N N                       2.<.h m } 7 ! ~ { ] ] / n @ $ 8 % ( * x = i - 9 > > ",
"                                      |.1.1.}.{.{.`                           f 6 h m } 7 ! ~ { { ] / n @ $ 8 % & * x = - - 9 > ",
"                                    3.4.5.1.1.}.{.6.                            5 6 h m } 7 ~ ~ 1 { ] / @ @ $ 8 % & * x = - - ; ",
"                                    7.8.9.5.1.}.}.                              (.f 6 h } } 7 ~ ~ 1 ] ] / @ @ $ 8 % & * x = - ; ",
"                                    8.0.8.9.5.1.a.                              e f g 6 h } s 7 ! ~ 1 ] ] / @ # $ 8 % & * = = - ",
"                                    b.c.0.8.9.5.a.                              d e f g 6 h } s 7 ! ~ 1 ] ^ / @ @ $ 8 % & * = = ",
"                                    d.e.f.0.4.5.3.                              g.e e f g h m } s 7 ~ 1 { ] / n @ # $ 8 & * * = ",
"                                    h.i.e.f.0.9.9.                              w l e e f g h m } s | ~ 1 { ] / / @ # $ % & * x ",
"                                    j.k.i.c.f.0.8.8.                            k w l e e f 6 h [ } s | ~ 1 { ] ^ / @ # $ % & ( ",
"                                      l.k.i.c.0.0.8.                          m.k r w l e e f 6 6 [ } s | ~ 1 { ] ^ / @ # $ % ( ",
"                                      n.l.i.i.c.c.0.4.                      u  .v k r w l e &.f g 6 [ } s | ~ 1 { ] ^ / @ $ $ & ",
"                                      o.p.l.i.i.e.f.8.4.                  q.O C v v k r l l e f f g 6 [ } 7 | ~ ~ { ] / / @ r.s.",
"                                        p.t.l.i.i.e.f.0.4.u.          v.S #.X C C v v k r l l e e f g h [ } 7 ! ~ 1 { ] / n w.8 ",
"                                          x.t.l.k.i.e.f.0.4.9.|.y.z.A.{.B.S W X O C v v D C.^.l e e f g h m } 7 7 ~ 1 { ] / ,.  ",
"                                          D.t.l.l.i.E.c.0.8.9.|.|.1.}.{.{.S W X X C u  .        P /.f g 6 h } s 7 ! ~ 1 ] ^ _.  ",
"                                            D.t.t.k.i.E.c.0.8.9.5.|.1.}.{.{.S W T X X             F.e f g 6 h } } 7 ! ~ 1 . .   ",
"                                              G.x.t.k.i.E.c.0.8.9.5.|.1.}.{.{.S N T                 d e f g 6 [ m } 7 ! ~ ~     ",
"                                                  o.o.k.i.E.c.0.0.9.5.|.1.}.{.{.H.                  I.l e f g 6 h m } 7 ! ~     ",
"                                                    k.p.k.i.e.c.0.0.9.9.|.[.1.                      J.l l e f g 6 h m } s =.    ",
"                                                          K.i.b.7.8.L.8.                            k r l e e f f 6 h m }       ",
"                                                                                                  q q r r l e e f g 6 2.}       ",
"                                                                                                u C v D r r l e e f g <.        ",
"                            M.N.O.P.                                                          J O C v v k r l l e e (.          ",
"                        Q.R.M.S.T.O.U.V.                                                    W.q.X O C v v k r l l e X.          ",
"                      Y.Z.Q.`.S.S.N.N.P.P.                                               +{.B.S W X O C v v k r w I.            ",
"                      .+Z.Z.Q.`.`.S.N.N.U.++@+                                      #+1.:.}.{.S S W X O C v v k D               ",
"                      $+.+Z.%+Q.`.`.S.N.O.U.&+&+*+                              f.8.=+|.1.}.}.{.{.S W X O C v q -+              ",
"                      $+;+.+Z.%+>+`.S.S.N.O.P.&+,+'+'+)+!+              ~+i.{+e.c.0.4.5.|.1.}.}.{.B.S W X O C ]+                ",
"                      ^+^+;+.+Z.Z.>+`.S.S.N.O.&+&+,+,+/+!+(+_+:+<+[+G.x.t.l.i.i.e.f.0.4.5.|.1.}.}.{.B.S W J u                   ",
"                      }+|+^+;+.+1+Z.Q.`.S.S.N.O.U.&+,+,+/+!+(+2+_+3+[+4+x.t.l.i.i.e.f.0.4.5.|.1.}.}.{.B.#.#.                    ",
"                      5+|+^+;+.+1+Z.Q.`.S.S.N.O.U.&+,+,+/+!+(+2+_+3+[+4+x.t.l.i.i.e.f.0.4.5.|.1.}.}.{.` `                       ",
"                        6+7+^+;+.+1+Z.Q.`.S.S.N.N.U.&+,+,+/+!+(+(+_+3+[+4+x.t.l.k.i.e.f.0.4.5.|.1.}.8+}.                        ",
"                            |+9+^+.+1+Z.Q.`.S.S.T.N.U.&+,+,+/+!+)+2+_+3+[+4+x.t.l.k.i.e.f.0.9.5.|.1.                            ",
"                              0+;+;+.+Z.Z.Q.`.S.S.N.N.U.&+,+,+/+/+)+2+_+3+[+4+x.t.l.k.i.c.f.0.0.|.                              ",
"                                  a+b+b+Z.Z.Q.`.`.S.N.N.U.&+,+,+/+/+)+2+_+3+[+4+4+t.l.k.i.e.f.                                  ",
"                                      c+.+Z.%+Q.`.`.S.N.O.U.&+,+,+/+!+)+2+_+3+[+4+4+o.p.k.                                      ",
"                                          a+Z.Q.>+`.S.S.N.O.&+&+,+,+/+!+)+2+3+3+d+e+x.                                          ",
"                                                  %+R.S.S.O.U.&+&+'+'+/+f+g+2+                                                  "};
