/* XPM */
static char * C:\Users\htcan\OneDrive\Commercium\newwallet\commercium32_xpm[] = {
"32 32 163 2",
"  	c None",
". 	c #27D8FF",
"+ 	c #2AD8FF",
"@ 	c #2BDCFF",
"# 	c #2CDDFF",
"$ 	c #2EDFFF",
"% 	c #2EE1FF",
"& 	c #30E4FF",
"* 	c #32E5FF",
"= 	c #33E7FF",
"- 	c #32E9FF",
"; 	c #24D1FF",
"> 	c #27D3FF",
", 	c #27D5FF",
"' 	c #28D6FF",
") 	c #29D9FF",
"! 	c #2BDBFF",
"~ 	c #2DDFFF",
"{ 	c #31E3FF",
"] 	c #32E6FF",
"^ 	c #34E9FF",
"/ 	c #36EBFF",
"( 	c #21CAFF",
"_ 	c #22CDFF",
": 	c #24CFFF",
"< 	c #25D2FF",
"[ 	c #26D3FF",
"} 	c #28D8FF",
"| 	c #2FE2FF",
"1 	c #31E6FF",
"2 	c #34EAFF",
"3 	c #36EDFF",
"4 	c #36ECFF",
"5 	c #1FC7FF",
"6 	c #20C9FF",
"7 	c #20CBFF",
"8 	c #22CEFF",
"9 	c #2FE3FF",
"0 	c #33E8FF",
"a 	c #35EBFF",
"b 	c #36EEFF",
"c 	c #1CC3FF",
"d 	c #1EC6FF",
"e 	c #1FC8FF",
"f 	c #21CCFF",
"g 	c #24D0FF",
"h 	c #27D4FF",
"i 	c #28D5FF",
"j 	c #28D7FF",
"k 	c #2ADAFF",
"l 	c #2DDDFF",
"m 	c #2EE0FF",
"n 	c #32E7FF",
"o 	c #33E9FF",
"p 	c #37EEFF",
"q 	c #1BC2FF",
"r 	c #1CC4FF",
"s 	c #23CEFF",
"t 	c #23CFFF",
"u 	c #2FE1FF",
"v 	c #1DC5FF",
"w 	c #20CAFF",
"x 	c #30E2FF",
"y 	c #31E4FF",
"z 	c #38EEFF",
"A 	c #31E5FF",
"B 	c #23D0FF",
"C 	c #26D4FF",
"D 	c #1FC5FF",
"E 	c #1EC7FF",
"F 	c #27D6FF",
"G 	c #2DE0FF",
"H 	c #1BC0FF",
"I 	c #1FC9FF",
"J 	c #22CFFF",
"K 	c #26D2FF",
"L 	c #26D5FF",
"M 	c #2CDCFF",
"N 	c #2DDEFF",
"O 	c #34E8FF",
"P 	c #19BEFF",
"Q 	c #1AC1FF",
"R 	c #1DC4FF",
"S 	c #23CDFF",
"T 	c #25D1FF",
"U 	c #29D8FF",
"V 	c #18BDFF",
"W 	c #18BEFF",
"X 	c #19BFFF",
"Y 	c #1BC1FF",
"Z 	c #1AC0FF",
"` 	c #16BBFF",
" .	c #17BBFF",
"..	c #15B8FF",
"+.	c #16B9FF",
"@.	c #22CCFF",
"#.	c #14B5FF",
"$.	c #16BAFF",
"%.	c #18BAFF",
"&.	c #21CBFF",
"*.	c #13B4FF",
"=.	c #11B4FF",
"-.	c #14B6FF",
";.	c #14B7FF",
">.	c #1DC6FF",
",.	c #1EC8FF",
"'.	c #2BDDFF",
").	c #11B3FF",
"!.	c #15B9FF",
"~.	c #1AC2FF",
"{.	c #19C1FF",
"].	c #1CC2FF",
"^.	c #1EC5FF",
"/.	c #2BDAFF",
"(.	c #12B1FF",
"_.	c #17BCFF",
":.	c #19C0FF",
"<.	c #12B3FF",
"[.	c #12B5FF",
"}.	c #17BDFF",
"|.	c #08A4FF",
"1.	c #08A5FF",
"2.	c #1AC3FF",
"3.	c #21CDFF",
"4.	c #06A1FF",
"5.	c #07A3FF",
"6.	c #09A6FF",
"7.	c #09A8FF",
"8.	c #18BFFF",
"9.	c #049FFF",
"0.	c #05A0FF",
"a.	c #06A2FF",
"b.	c #0AA7FF",
"c.	c #0AA9FF",
"d.	c #0BA9FF",
"e.	c #14B9FF",
"f.	c #059DFF",
"g.	c #049DFF",
"h.	c #0AA6FF",
"i.	c #0AA8FF",
"j.	c #0DAAFF",
"k.	c #0DACFF",
"l.	c #0EADFF",
"m.	c #0FAFFF",
"n.	c #11B2FF",
"o.	c #12B4FF",
"p.	c #13B5FF",
"q.	c #049EFF",
"r.	c #07A2FF",
"s.	c #09A5FF",
"t.	c #0CABFF",
"u.	c #0DADFF",
"v.	c #0EAEFF",
"w.	c #0FB0FF",
"x.	c #14B8FF",
"y.	c #049CFF",
"z.	c #06A0FF",
"A.	c #16BCFF",
"B.	c #059EFF",
"C.	c #059FFF",
"D.	c #11B1FF",
"E.	c #13B3FF",
"F.	c #0EACFF",
"                      . + @ # $ % & * = -                       ",
"                  ; > , ' ) ! # ~ % { ] = ^ /                   ",
"              ( _ : < [ , } ) @ # ~ | { 1 = 2 3 4               ",
"            5 6 7 8 : < [ , } ) ! # ~ | 9 1 0 2 a b             ",
"          c d e 6 f 8 g < h i j k ! l m | { n o 2 3 p           ",
"          q r d e 6 7 s t               u | { n 0 2 3 p         ",
"            q v d e w                       x & ] o 2 3 p       ",
"              c c                             % y n o 2 3 z     ",
"                                                A y n o 2 3     ",
"                          w 7 8 B < C j           9 { n o 2 p   ",
"                      D E e 7 f 8 g < h F         G | A n o 2   ",
"                    H q v d I 7 f J g K L '     M N m | { n o O ",
"                    P Q c R d     S 8 T K , ' U ! M ~ % | 1 = O ",
"                  V W X Y Z           : ; K , ' U ! M ~ m | 1 n ",
"                  `  .W P               t ; [ , ' ) ! M N m | A ",
"                  ..+. .W               @.J ; [ , ' ) ! M ~ m 9 ",
"                  #...$.%.              &.8 : < [ , } ) ! # ~ | ",
"                  *.#...+.              I 7 8 : T [ , } ) ! # $ ",
"                  =.*.-...;.          >.,.I 7 8 : T [ , ' ) ! '.",
"                    ).*.#...!.    W ~.r v ,.I f 8 : < [ , } ) ! ",
"                      ).*.-...$. .W {.].r ^.    f 8 g < [ F } /.",
"                      (.).*.;...$._.W :.q         &.8 g < C ,   ",
"                          <.[.-...` }.}.          6 f 8 : < C   ",
"                                                ^.,.7 f 8 B     ",
"              |.1.                            2.r d I 7 f 3.    ",
"            4.5.|.6.7.                      8.Q ].v d I w       ",
"          9.0.a.5.1.b.c.d.              e. ._.X Q ].v d         ",
"          f.g.0.4.5.1.h.i.j.k.l.m.n.o.p.;.!.` W X Q Y           ",
"            g.q.0.r.|.s.h.d.t.u.v.w.n.o.p.x.+. .W X             ",
"              y.q.z.r.|.1.h.d.t.k.v.w.n.o.p.x.$.A.              ",
"                  B.C.r.5.s.h.d.t.k.v.w.D.E.[.                  ",
"                      4.5.|.6.b.d.t.F.m.D.                      "};
